<svg width="169" height="169" viewBox="0 0 169 169" fill="none" xmlns="http://www.w3.org/2000/svg">
        <g clip-path="url(#clip0_3_6)">
                <path
                        d="M165.016 84.4326C163.303 84.5573 161.523 84.7015 160.036 85.5603C158.548 86.4193 157.425 88.8184 156.977 90.3613C157.151 90.3773 157.343 90.3852 157.542 90.3885C154.319 90.9854 151.01 91.5478 147.757 91.5608C149.359 90.6367 151.343 88.9658 152.008 87.5074C152.796 85.7819 152.369 84.1476 151.205 82.6501C149.725 83.6155 148.195 84.632 147.284 86.1458C146.452 87.5293 146.534 89.917 146.834 91.5484C144.836 91.4895 142.864 91.2045 140.951 90.5705C139.819 90.1953 138.729 89.7032 137.664 89.1475C139.391 88.4466 141.719 86.9374 142.584 85.4986C143.561 83.873 143.322 82.2009 142.334 80.5817C140.754 81.3739 139.12 82.2111 138.043 83.6128C137.09 84.855 136.884 87.1338 136.976 88.7797C134.716 87.5347 132.552 86.0445 130.316 84.8084C131.544 84.3137 133.21 83.2374 133.827 82.2109C134.521 81.0566 134.351 79.8693 133.649 78.7197C132.528 79.2824 131.367 79.8768 130.603 80.8719C129.924 81.7571 129.779 83.3836 129.846 84.5532C128.353 83.7566 126.823 83.0877 125.207 82.6953C129.894 78.8653 133.933 74.1742 138.212 69.8629C138.896 69.6579 139.594 69.5484 140.302 69.5016C140.167 70.6954 140.235 72.204 140.668 73.0783C141.237 74.2279 142.277 74.7017 143.559 74.7301C143.684 73.5416 143.804 72.3049 143.399 71.1806C143.18 70.5739 142.64 69.9856 142.032 69.4937C143.97 69.584 145.955 69.9394 147.906 69.9356C148.062 71.1121 148.476 72.5147 149.087 73.2465C149.909 74.2313 151.031 74.4488 152.284 74.1765C152.128 72.9916 151.956 71.7612 151.299 70.763C151.041 70.372 150.621 70.0303 150.141 69.7432C152.136 69.4076 153.548 68.7837 155.017 67.8528C155.307 67.6687 155.587 67.4695 155.86 67.2633C156.606 68.7505 157.987 70.6059 159.252 71.2808C160.759 72.0846 162.252 71.7924 163.663 70.8294C162.877 69.4455 162.049 68.0134 160.739 67.1102C159.805 66.4664 158.29 66.2895 156.965 66.3271C157.483 65.8346 157.96 65.2998 158.391 64.7267C158.391 64.7306 158.392 64.735 158.393 64.7387C159.803 64.2148 162.079 62.6644 162.812 61.2754C163.546 59.8864 163.272 58.5145 162.381 57.2206C161.111 57.948 159.797 58.7151 158.971 59.9233C158.217 61.0267 158.171 63.0026 158.34 64.3657C155.837 66.1929 153.19 67.9699 150.177 68.5111C151.178 67.6711 152.33 66.3024 152.619 65.2251C152.969 63.9246 152.479 62.8298 151.489 61.9172C150.565 62.7665 149.613 63.6573 149.152 64.8241C148.736 65.8761 149.059 67.5079 149.452 68.6152C147.884 68.7878 146.281 68.6278 144.687 68.4625C145.401 68.0681 146.141 67.5075 146.467 66.9662C146.955 66.1532 146.835 65.3172 146.342 64.5074C145.552 64.9035 144.734 65.3223 144.196 66.023C143.766 66.5839 143.64 67.5675 143.654 68.3591C142.34 68.2351 141.038 68.1588 139.773 68.3218C142.753 65.4444 145.897 62.8179 149.491 60.8417C150.417 60.9591 151.848 60.858 152.589 60.4223C153.407 59.9417 153.701 59.1499 153.654 58.2026C152.771 58.1734 151.853 58.1506 151.045 58.5092C150.299 58.8407 149.641 59.8619 149.298 60.6187C148.08 61.0859 146.872 61.6033 145.681 62.1693C146.342 61.2942 147.024 59.969 147.062 59.0379C147.107 57.9057 146.502 57.0981 145.52 56.5329C144.92 57.4011 144.303 58.3089 144.141 59.3518C143.993 60.306 144.58 61.6095 145.114 62.4439C143.636 63.1682 142.186 63.9633 140.779 64.8213C141.336 63.8624 141.866 62.4058 141.777 61.451C141.672 60.3188 140.963 59.596 139.911 59.1645C139.429 60.108 138.936 61.093 138.914 62.1523C138.894 63.1275 139.661 64.3559 140.306 65.1137C138.351 66.3338 136.483 67.6712 134.742 69.1033C128.613 74.1481 123.64 80.6315 116.876 84.7863C116.846 84.8044 116.815 84.8202 116.785 84.8382C117.03 83.1608 116.941 81.3966 116.951 79.6445C118.064 79.5949 119.735 79.182 120.52 78.5155C121.384 77.7821 121.568 76.7898 121.319 75.6847C120.273 75.8313 119.188 75.9927 118.311 76.5804C117.731 76.9692 117.277 77.7648 116.975 78.538C117.011 77.6269 117.099 76.7248 117.302 75.8459C117.584 74.6268 118.076 73.4916 118.697 72.4163C119.662 72.9442 121.092 73.4296 122.027 73.3259C123.153 73.201 123.86 72.4813 124.271 71.4254C123.323 70.9623 122.333 70.4892 121.277 70.486C120.743 70.4844 120.137 70.7215 119.575 71.0441C120.43 69.8234 121.419 68.6738 122.414 67.5586C123.356 68.1507 125.017 68.7691 126.061 68.6533C127.187 68.5284 127.894 67.8087 128.306 66.7528C127.357 66.2897 126.367 65.8166 125.311 65.8132C124.256 65.8101 122.918 66.7374 122.203 67.419C122.206 67.4205 122.208 67.4221 122.211 67.4237C121.464 67.8577 120.765 68.3664 120.122 68.939C120.425 67.8688 120.571 66.2413 120.22 65.313C119.936 64.5647 119.416 64.0935 118.74 63.8329C124.322 60.9218 131.386 60.7971 137.136 57.8903C139.942 56.4716 141.951 54.988 143.681 53.2444C144.367 54.0711 145.409 54.9787 146.255 55.2357C147.339 55.565 148.273 55.183 149.067 54.3748C148.378 53.5751 147.655 52.7497 146.686 52.3305C146.133 52.0908 145.375 52.0946 144.654 52.2056C145.055 51.754 145.446 51.2862 145.832 50.7962C146.184 50.3504 146.518 49.8918 146.837 49.4238C147.658 50.156 148.941 50.9515 149.875 51.0618C151 51.1947 151.852 50.6536 152.491 49.718C151.672 49.0524 150.814 48.3677 149.787 48.1259C149.109 47.9665 148.222 48.1739 147.452 48.4773C148.163 47.3232 148.776 46.112 149.288 44.8573C150.26 45.3568 151.661 45.7977 152.576 45.6807C153.7 45.5369 154.395 44.8056 154.788 43.7431C153.832 43.2961 152.834 42.8395 151.779 42.8539C151.131 42.8628 150.384 43.2241 149.74 43.6621C149.994 42.9333 150.216 42.1921 150.402 41.4402C151.289 40.7662 152.407 39.5137 152.679 38.5389C152.983 37.4474 152.579 36.5227 151.753 35.7473C150.969 36.4547 150.161 37.1967 149.764 38.175C149.368 39.1531 149.729 40.7407 150.095 41.6577C150.108 41.649 150.123 41.6382 150.137 41.6291C149.221 42.9699 148.286 44.3172 147.31 45.6321C147.656 44.6074 147.883 43.2143 147.649 42.3482C147.354 41.2543 146.534 40.6652 145.428 40.4202C145.115 41.4284 144.799 42.4792 144.957 43.5229C145.105 44.5 146.097 45.597 146.865 46.2268C145.813 47.6144 144.709 48.9556 143.526 50.2038C143.998 49.2119 144.407 47.3473 144.119 46.2813C143.824 45.1875 143.004 44.5983 141.898 44.3534C141.585 45.3615 141.269 46.4123 141.427 47.456C141.584 48.4902 142.686 49.6579 143.467 50.2646C142.385 51.401 141.239 52.4599 140.002 53.3996C140.675 49.5163 139.592 45.256 140.351 41.298C140.417 40.9558 140.497 40.6188 140.588 40.2857C141.636 40.5911 143.093 40.7579 143.968 40.4702C145.044 40.1162 145.588 39.2665 145.774 38.1486C144.75 37.8905 143.684 37.6312 142.65 37.8453C142.129 37.9532 141.587 38.3072 141.105 38.7359C141.6 37.4836 142.253 36.2921 142.999 35.1453C143.919 35.7305 145.263 36.2951 146.18 36.2647C147.312 36.2271 148.073 35.5643 148.565 34.5436C147.655 34.0086 146.705 33.4602 145.652 33.3754C145.126 33.3329 144.512 33.5171 143.933 33.7899C144.786 32.615 145.712 31.4824 146.633 30.3728C147.745 30.3291 149.341 29.9615 150.115 29.3374C150.997 28.6262 151.206 27.639 150.985 26.5277C149.936 26.6477 148.847 26.7814 147.955 27.3466C147.064 27.9118 146.435 29.4134 146.199 30.3722C146.269 30.3757 146.344 30.3773 146.421 30.3773C145.596 30.8696 144.819 31.4325 144.098 32.0609C144.307 31.18 144.399 30.2048 144.22 29.5403C143.924 28.4464 143.105 27.8573 141.998 27.6123C141.686 28.6204 141.369 29.6712 141.528 30.7149C141.651 31.5314 142.364 32.4305 143.044 33.0718C142.546 33.5935 142.08 34.1457 141.657 34.7334C141.279 35.2597 140.936 35.7822 140.624 36.3214C140.738 35.2559 140.662 33.8883 140.26 33.1071C139.742 32.0994 138.818 31.695 137.685 31.6873C137.59 32.7387 137.501 33.8324 137.874 34.8197C138.215 35.7214 139.364 36.5653 140.24 37.0284C139.699 38.0924 139.275 39.2541 138.954 40.6595C138.753 39.5929 138.261 38.2511 137.625 37.6074C136.828 36.8014 135.825 36.6926 134.742 37.0247C134.967 38.0559 135.21 39.1261 135.861 39.9562C136.462 40.7207 137.829 41.183 138.805 41.359C138.803 41.3699 138.801 41.38 138.799 41.3908C138.42 43.3684 138.499 45.4212 138.589 47.4645C137.602 46.9574 136.068 46.497 135.1 46.65C134.661 46.7193 134.292 46.8783 133.982 47.1095C134.477 45.5282 134.745 43.8794 134.775 42.2148C134.776 42.1811 134.729 42.1716 134.717 42.2028C134.639 42.3997 134.56 42.5975 134.481 42.7951C134.53 41.9633 134.466 41.0992 134.215 40.5238C133.763 39.4848 132.866 39.0215 131.736 38.9407C131.574 39.9838 131.415 41.0694 131.723 42.0789C131.994 42.9632 133.011 43.8435 133.838 44.3715C133.305 45.6493 132.735 46.9161 132.091 48.1314C132.194 47.1798 132.156 46.1075 131.862 45.432C131.41 44.3931 130.513 43.9298 129.383 43.849C129.221 44.8921 129.062 45.9777 129.37 46.9872C129.638 47.8626 130.637 48.7336 131.46 49.2634C130.789 50.4003 130.036 51.4739 129.166 52.4484C129.498 51.6165 129.729 50.6815 129.652 50.006C129.524 48.8802 128.803 48.1747 127.746 47.7663C127.286 48.7162 126.815 49.7075 126.815 50.7631C126.814 51.6665 127.496 52.7738 128.121 53.5211C127.915 53.712 127.704 53.8983 127.485 54.078C126.891 54.5676 126.257 55.0064 125.6 55.4143C125.933 54.5804 126.166 53.6416 126.089 52.964C125.961 51.8382 125.239 51.1327 124.183 50.7243C123.722 51.6742 123.251 52.6655 123.251 53.7211C123.251 54.5048 123.764 55.4426 124.308 56.1654C122.52 57.1417 120.623 57.9693 118.857 58.9419C122.173 50.0311 126.969 41.1842 132.82 33.2417C133.25 34.1455 133.9 35.1143 134.55 35.5497C135.491 36.1801 136.496 36.0861 137.491 35.544C137.064 34.5785 136.612 33.5785 135.807 32.8955C135.291 32.4574 134.439 32.2379 133.634 32.1521C134.843 30.5541 136.096 28.9954 137.387 27.4827C137.425 28.5074 137.654 29.7129 138.104 30.389C138.732 31.3321 139.696 31.6304 140.822 31.5111C140.798 30.4557 140.764 29.3589 140.283 28.4197C139.905 27.6838 138.941 27.057 138.092 26.665C138.679 25.9928 139.273 25.3294 139.875 24.6768C140.571 25.4418 141.544 26.2284 142.335 26.4535C143.425 26.7632 144.352 26.3642 145.132 25.5419C144.428 24.7549 143.69 23.9427 142.714 23.5411C142.259 23.3538 141.671 23.3319 141.08 23.3969C141.794 22.6507 142.519 21.9196 143.253 21.2034C144.327 21.4893 145.947 21.6102 146.866 21.2473C147.92 20.8312 148.414 19.9511 148.533 18.8245C147.497 18.6265 146.417 18.4297 145.398 18.7036C144.564 18.9276 143.711 19.8022 143.149 20.5756C142.622 20.9685 142.098 21.3704 141.577 21.7825C141.914 20.7627 142.13 19.3997 141.9 18.5473C141.604 17.4534 140.785 16.8643 139.678 16.6193C139.366 17.6275 139.05 18.6783 139.208 19.722C139.345 20.6297 140.211 21.6406 140.949 22.2844C139.832 23.1893 138.729 24.1369 137.644 25.1211C137.764 24.0496 137.692 22.6541 137.285 21.8619C136.767 20.8541 135.842 20.4497 134.709 20.442C134.615 21.4934 134.525 22.5871 134.899 23.5745C135.212 24.404 136.21 25.1846 137.05 25.665C135.584 27.0204 134.151 28.4425 132.757 29.919C132.99 28.836 132.986 27.0027 132.495 26.0473C131.977 25.0396 131.052 24.6352 129.919 24.6275C129.825 25.6788 129.735 26.7725 130.109 27.7599C130.471 28.7173 131.744 29.6096 132.633 30.05C131.73 31.0103 130.841 31.9917 129.972 32.9937C129.889 29.9682 128.801 26.8835 128.583 23.7977C129.446 24.1555 130.812 24.4366 131.628 24.2266C132.548 23.9895 133.051 23.3082 133.268 22.3824C132.425 22.11 131.547 21.834 130.669 21.9563C129.932 22.059 129.108 22.7311 128.559 23.3295C128.546 22.9996 128.539 22.6697 128.551 22.3398C128.578 21.5181 128.689 20.7119 128.864 19.9195C129.634 20.4209 130.774 20.9124 131.552 20.8917C132.502 20.8664 133.144 20.3142 133.562 19.4604C132.801 19.0066 132.007 18.5414 131.124 18.4647C130.487 18.4092 129.693 18.7496 129.058 19.1388C129.384 17.9562 129.845 16.8041 130.382 15.6774C131.386 16.3509 132.929 17.0303 133.973 17.0022C135.213 16.969 136.05 16.2487 136.596 15.1345C135.603 14.5424 134.566 13.9354 133.415 13.8352C132.651 13.7686 131.715 14.1382 130.925 14.5922C131.524 13.4462 132.184 12.3255 132.841 11.2245C132.856 11.1996 132.825 11.1731 132.802 11.1913C132.473 11.4543 132.159 11.734 131.854 12.0226C132.066 10.6619 132.012 8.68196 131.458 7.6037C130.815 6.35337 129.668 5.85158 128.262 5.8419C128.144 7.14636 128.034 8.50357 128.497 9.72881C128.917 10.8405 130.327 11.8812 131.411 12.4582C130.386 13.5122 129.517 14.7119 128.843 16.0261C128.936 15.1292 128.872 13.9836 128.534 13.3279C128.097 12.4778 127.317 12.1364 126.361 12.1299C126.282 13.0169 126.206 13.9397 126.521 14.7728C126.811 15.5405 127.796 16.2588 128.538 16.6472C127.702 18.4276 127.216 20.1834 127.132 22.6507C126.996 26.7018 128.88 30.7669 128.516 34.7141C124.08 40.0613 120.165 45.8751 117.009 51.6536C116.661 50.5633 116.363 49.4643 116.177 48.3499C117.105 48.0627 118.345 47.4131 118.857 46.7262C119.45 45.9307 119.412 45.048 118.982 44.1542C118.119 44.4849 117.224 44.8362 116.592 45.5099C116.317 45.8028 116.123 46.2351 115.992 46.7013C115.929 45.5575 116 44.4205 116.169 43.2923C117.128 43.4733 118.595 43.4658 119.387 43.0712C120.275 42.6291 120.64 41.8245 120.66 40.8327C119.741 40.7379 118.784 40.6474 117.915 40.9627C117.319 41.1792 116.745 41.7966 116.321 42.4134C116.531 41.3329 116.823 40.2612 117.167 39.1993C118.241 39.4498 120.118 39.4641 121.091 38.97C122.101 38.4571 122.511 37.5347 122.525 36.4018C121.474 36.3018 120.381 36.2068 119.391 36.5748C118.61 36.8654 117.869 37.7609 117.38 38.5628C117.8 37.3423 118.28 36.1361 118.774 34.9458C119.779 34.5104 121.326 33.3594 121.809 32.3582C122.301 31.3374 122.067 30.356 121.39 29.447C120.494 30.0051 119.568 30.593 119.004 31.4858C118.533 32.2335 118.51 33.4947 118.631 34.4533C117.412 35.8626 116.425 37.4575 115.714 39.1784C115.626 38.341 115.395 37.4326 114.928 36.8968C114.304 36.1807 113.426 35.7544 112.549 35.3745C114.536 33.8326 116.527 32.2754 118.077 30.3453C119.327 28.7896 120.192 27.3723 120.833 25.9317C121.823 26.4687 123.373 26.9715 124.36 26.8371C125.498 26.6822 126.197 25.9349 126.587 24.8542C125.614 24.4086 124.599 23.9538 123.528 23.9771C122.786 23.9931 121.918 24.4664 121.22 24.9914C121.533 24.1642 121.786 23.3183 122.007 22.4239C122.096 22.0671 122.173 21.7082 122.24 21.3478C123.15 21.5752 124.51 21.6576 125.279 21.3421C126.163 20.9794 126.57 20.2315 126.659 19.2794C125.782 19.124 124.869 18.9701 124.012 19.2125C123.424 19.3786 122.83 19.9308 122.379 20.4932C122.534 19.3968 122.593 18.2895 122.559 17.1838C123.31 17.2831 124.503 17.1982 125.113 16.8353C125.776 16.4413 126.012 15.7965 125.97 15.0267C125.252 15.0063 124.506 14.9915 123.85 15.2862C123.314 15.5275 122.836 16.2082 122.543 16.789C122.5 15.9613 122.404 15.1353 122.256 14.3162C122.761 13.755 123.376 12.6819 123.412 11.9562C123.45 11.1862 123.043 10.633 122.378 10.2423C121.965 10.8294 121.539 11.4432 121.423 12.1518C121.31 12.8371 121.753 13.7933 122.127 14.3563C121.907 15.6128 121.678 16.8807 121.409 18.1391C121.31 17.4303 121.051 16.5816 120.678 16.1426C120.177 15.5557 119.502 15.4316 118.75 15.6027C118.851 16.3139 118.962 17.0522 119.363 17.6482C119.73 18.1931 120.624 18.5736 121.276 18.7439C121.038 19.8065 120.767 20.8599 120.446 21.8901C120.344 21.1876 120.088 20.3571 119.72 19.9244C119.22 19.3375 118.544 19.2134 117.792 19.3845C117.893 20.0957 118.004 20.834 118.405 21.43C118.758 21.9549 119.602 22.3277 120.247 22.5067C119.482 24.7908 118.448 26.9477 116.937 28.8283C116.223 29.7171 115.416 30.5263 114.558 31.2916C114.22 30.1381 113.699 28.6993 113.148 27.1712C114.028 26.7537 115.255 25.8298 115.661 25.0121C116.101 24.1237 115.906 23.2623 115.323 22.4603C114.533 22.9397 113.717 23.4451 113.215 24.2209C112.884 24.7333 112.794 25.5281 112.818 26.2535C112.269 24.7225 111.722 23.145 111.32 21.7076C112.419 21.5697 114.04 21.0282 114.764 20.3061C115.561 19.5112 115.665 18.5141 115.33 17.4394C114.306 17.6676 113.244 17.9137 112.422 18.5653C111.781 19.0744 111.358 20.1305 111.14 21.0321C110.946 20.2676 110.804 19.5544 110.738 18.9256C110.636 17.9657 110.635 17.0103 110.711 16.0605C111.799 16.2554 113.426 16.2396 114.31 15.7993C115.318 15.2977 115.732 14.3844 115.754 13.2591C114.711 13.1517 113.626 13.0487 112.64 13.4067C111.956 13.655 111.299 14.3674 110.816 15.0743C110.973 13.9115 111.237 12.7577 111.57 11.6153C112.826 11.7439 114.822 11.5394 115.824 10.8991C116.908 10.2071 117.267 9.11955 117.156 7.8386C115.958 7.84314 114.713 7.85815 113.637 8.38444C113.063 8.66497 112.542 9.25527 112.121 9.90424C112.654 8.37476 113.279 6.86722 113.904 5.38654C113.917 5.35552 113.877 5.32984 113.854 5.35434C112.493 6.78977 111.387 8.44371 110.586 10.2436C110.393 9.23472 109.996 8.08732 109.337 7.48971C108.449 6.68527 107.257 6.32512 106.108 5.98809C105.645 7.18785 105.688 8.33209 106.537 9.29794C107.28 10.1435 108.987 10.8622 110.221 11.1277C110.153 11.3065 110.087 11.4861 110.025 11.6672C109.457 13.3291 109.104 14.8953 109.039 16.7183C108.83 16.2381 108.561 15.8046 108.225 15.5261C107.418 14.8562 106.362 14.5861 105.344 14.3348C104.985 15.4016 105.066 16.4008 105.845 17.2136C106.514 17.9123 107.992 18.4679 109.076 18.6633C109.095 18.94 109.118 19.2212 109.149 19.5127C109.24 20.3774 109.462 21.3656 109.759 22.4192C109.463 22.1422 109.142 21.9192 108.818 21.8123C108.559 21.7267 108.292 21.6799 108.023 21.6552C108.03 21.6406 108.04 21.6258 108.047 21.6114C108.39 20.9195 108.238 20.2486 107.784 19.624C107.169 19.9973 106.533 20.3909 106.142 20.9952C105.824 21.4871 105.791 22.3135 105.859 22.9603C105.624 23.3746 105.402 23.7954 105.192 24.2215C105.253 23.0361 105.081 21.5069 104.58 20.6635C103.944 19.5914 102.901 19.2089 101.656 19.2761C101.623 20.4371 101.598 21.6446 102.074 22.7041C102.511 23.6764 103.84 24.5303 104.835 24.9787C103.809 27.2522 103.126 29.6724 102.829 32.1597C102.392 35.8105 102.539 39.0332 103.94 43.3275C104.435 44.8441 105.108 46.2973 105.868 47.7168C105.786 47.6723 105.705 47.6261 105.619 47.5874C104.561 47.1079 102.8 47.4348 101.775 47.7966C102.378 48.8268 103.903 50.393 105.09 50.7759C105.958 51.056 106.745 50.9138 107.454 50.4754C108.013 51.4024 108.585 52.3232 109.143 53.2463C108.807 52.9605 108.443 52.7123 108.039 52.5292C106.982 52.0497 105.22 52.3767 104.195 52.7384C104.799 53.7687 106.324 55.3349 107.51 55.7178C108.54 56.0498 109.455 55.7899 110.26 55.1444C111.002 56.4552 111.679 57.7834 112.218 59.1527C111.623 58.4735 110.973 57.8407 110.157 57.4711C109.099 56.9916 107.338 57.3185 106.313 57.6803C106.917 58.7105 108.441 60.2767 109.628 60.6596C110.72 61.0116 111.682 60.6977 112.522 59.9648C112.587 60.1513 112.649 60.3386 112.708 60.5268C110.721 65.039 108.83 69.5974 106.291 73.8168C106.204 73.9622 106.111 74.1058 106.022 74.2506C105.469 73.1953 104.851 72.1583 104.22 71.1227C105.179 70.8602 106.287 70.3772 106.812 69.6786C107.492 68.7734 107.728 67.6203 107.946 66.5092C106.777 66.1777 105.703 66.3174 104.868 67.1999C104.278 67.823 103.821 69.0285 103.591 70.0933C102.196 67.8159 100.818 65.5181 99.9958 63.0224C101.041 63.0672 102.436 62.9248 103.207 62.3321C104.105 61.642 104.641 60.5942 105.148 59.5817C104.11 58.9494 103.039 58.7967 101.997 59.4233C101.149 59.9338 100.263 61.239 99.7771 62.3066C99.1234 60.001 98.9442 57.619 99.0369 55.215C100.062 55.2397 101.361 55.083 102.094 54.5192C102.992 53.8291 103.528 52.7813 104.035 51.7688C102.997 51.1364 101.926 50.9837 100.884 51.6104C100.265 51.983 99.6268 52.7795 99.1374 53.5976C99.2868 51.8322 99.5565 50.0617 99.8672 48.3078C100.738 47.8268 101.703 47.0956 102.049 46.292C102.497 45.2521 102.455 44.0758 102.404 42.9446C101.19 42.898 100.18 43.2864 99.5754 44.3409C99.0563 45.2471 98.9314 46.9457 99.0592 48.1285C98.1392 50.1281 97.5291 52.2619 97.2666 54.4564C97.1583 55.3624 97.0933 56.2379 97.0823 57.1137C96.8727 56.2745 96.5149 55.4068 95.9758 54.9246C95.1318 54.1697 94.003 53.8364 92.9144 53.5251C92.4846 54.662 92.5324 55.7432 93.3406 56.651C94.1053 57.5098 95.9327 58.221 97.1068 58.4075C97.1992 60.1582 97.5353 61.9694 98.2241 64.0815C99.6412 68.4261 102.753 72.1674 104.712 76.2428C102.885 78.8531 97.7715 82.7139 92.3058 85.0407C92.9405 83.4751 93.5689 81.9025 94.0506 80.3016C95.1828 80.6777 96.9183 80.9122 97.9294 80.5803C99.0841 80.2012 99.6685 79.2901 99.8676 78.0911C98.7698 77.8137 97.6263 77.535 96.5175 77.764C95.766 77.919 94.973 78.5518 94.3527 79.215C94.5073 78.6028 94.6361 77.9856 94.7314 77.3623C94.9544 75.9028 95.0449 74.5999 95.0241 73.3784C96.2101 73.3626 97.8456 73.0469 98.6746 72.4377C99.6541 71.718 99.9255 70.6701 99.7418 69.4688C98.6121 69.547 97.4387 69.6381 96.4562 70.2007C95.848 70.5492 95.3306 71.2873 94.9536 72.04C94.8248 70.5613 94.5308 69.1673 94.1075 67.7098C94.0318 67.4496 93.9494 67.1918 93.8641 66.9352C94.959 66.4897 96.3426 65.6206 96.8908 64.7662C97.5473 63.7433 97.4252 62.6678 96.8231 61.612C95.7966 62.0899 94.7335 62.5954 94.018 63.4728C93.6239 63.9562 93.4077 64.7018 93.307 65.4503C92.6991 64.0009 91.9304 62.6235 91.0183 61.342C91.7678 60.4366 92.5596 59.0555 92.6458 58.0627C92.7507 56.8519 92.142 55.9568 91.1177 55.3027C90.4316 56.2033 89.7261 57.1457 89.5013 58.2554C89.2994 59.2514 89.8387 60.643 90.3612 61.5646C90.733 62.6037 91.093 63.6522 91.4225 64.7075C91.2056 64.409 90.9636 64.153 90.6967 63.9777C89.7502 63.3562 88.5844 63.194 87.4617 63.0473C87.2051 64.2352 87.4125 65.2976 88.3464 66.0756C89.1846 66.7739 90.9484 67.1983 92.1424 67.2491C92.6685 69.3455 93.0132 71.4633 93.0278 73.5882C92.8941 73.1797 92.7135 72.8101 92.4737 72.5333C91.7325 71.6775 90.6548 71.2037 89.6147 70.7567C89.0441 71.8298 88.9542 72.9084 89.6408 73.9114C90.2419 74.7896 91.7625 75.6584 92.8901 76.0478C92.8694 76.2159 92.8467 76.384 92.821 76.552C92.6432 77.7156 92.3473 78.8578 91.9853 79.9871C91.8188 79.587 91.6082 79.2296 91.3451 78.971C90.5377 78.1772 89.4256 77.7912 88.3529 77.4289C88.2998 77.5516 88.2535 77.6739 88.2124 77.7958C87.992 73.9646 87.861 71.1022 87.8582 71.0498C87.7851 69.7274 87.6383 68.4087 87.4341 67.1092C86.9609 64.0979 86.325 61.1096 85.5514 58.1576C88.7581 54.1063 93.7815 51.3304 96.9126 47.0806C99.2216 43.9464 100.215 41.3493 100.846 38.244C101.382 35.6113 101.403 32.9023 100.929 30.2639C101.846 29.451 102.989 27.9436 103.199 26.8316C103.431 25.6065 102.902 24.63 101.924 23.8568C101.131 24.7053 100.313 25.5943 99.9696 26.7038C99.6604 27.701 100.069 29.1793 100.508 30.174C100.34 31.4149 100.16 32.663 99.9423 33.9029C99.8018 33.1573 99.548 32.4254 99.1307 31.9587C98.3565 31.0929 97.2435 30.6245 96.1692 30.1827C95.6014 31.2928 95.5265 32.4007 96.247 33.4183C96.88 34.3122 98.4622 35.1815 99.6264 35.5606C98.9676 38.7335 97.9889 41.801 96.2727 44.4883C96.413 43.9948 96.4238 43.45 96.3288 42.8703C95.1709 42.9628 93.968 43.0689 92.9662 43.6568C92.4518 43.9587 92.0049 44.5353 91.6511 45.1661C91.7674 44.4751 91.8429 43.7763 91.8889 43.0475C91.9239 42.4938 91.9302 41.9396 91.9115 41.3873C93.1375 41.3987 94.974 41.055 95.8713 40.3809C96.8681 39.632 97.1354 38.5541 96.9339 37.3238C95.776 37.4162 94.5731 37.5223 93.5713 38.1102C92.8352 38.5423 92.2368 39.5352 91.8536 40.4465C91.7424 39.1966 91.4954 37.9609 91.1177 36.7611C92.0004 35.9213 93.0176 34.5307 93.2149 33.4878C93.4469 32.2628 92.918 31.2863 91.9397 30.513C91.1465 31.3615 90.3292 32.2505 89.9853 33.36C89.6413 34.4695 90.1854 36.1766 90.672 37.1479C90.6852 37.1377 90.6995 37.1254 90.7129 37.1147C90.7115 38.936 90.6676 40.7747 90.462 42.574C90.3215 41.8292 90.0677 41.0983 89.6508 40.632C88.8766 39.7661 87.7636 39.2977 86.6893 38.856C86.1215 39.9661 86.0466 41.074 86.7671 42.0916C87.4131 43.0039 89.0463 43.8889 90.2162 44.2552C89.8863 46.0798 89.3438 47.843 88.4542 49.4811C88.3201 49.7281 88.1767 49.9695 88.0291 50.2085C88.1895 49.2581 88.2146 48.1541 87.8472 47.4175C87.3288 46.3779 86.3787 45.6325 85.4591 44.9229C84.6185 45.8439 84.254 46.8928 84.6805 48.0645C85.0658 49.1228 86.4249 50.4185 87.4597 51.076C86.5909 52.3178 85.5741 53.4721 84.5496 54.6158C84.1687 53.3556 83.7647 52.1031 83.3326 50.8609C82.4827 48.4175 81.8656 45.889 81.4149 43.3451C83.6475 38.2203 88.6706 34.411 91.2313 29.2992C92.3157 29.8712 94.1156 30.4075 95.2254 30.2165C96.4542 30.0049 97.1838 29.1679 97.5659 27.981C96.4934 27.5349 95.3746 27.0805 94.215 27.1465C93.3751 27.1943 92.4057 27.7883 91.6535 28.4144C92.3751 26.8338 92.8475 25.3975 93.1462 23.9856C94.3718 23.9888 96.1781 23.6442 97.0653 22.9773C98.062 22.2279 98.3288 21.1501 98.1268 19.9197C96.9689 20.0126 95.766 20.119 94.7645 20.7074C94.242 21.0144 93.7894 21.6049 93.4332 22.2475C93.5281 21.4591 93.5802 20.6623 93.6012 19.8356C93.6124 19.3893 93.6077 18.9434 93.5903 18.4985C94.729 18.1704 96.1127 17.5137 96.746 16.7689C97.5538 15.819 97.5775 14.7088 97.1101 13.5529C96.0009 13.8978 94.8509 14.2659 94.003 15.0596C93.7406 15.3054 93.5241 15.643 93.3479 16.0241C93.13 14.6444 92.7769 13.2868 92.2927 11.9721C92.9218 10.9218 93.5622 9.08379 93.4113 7.94014C93.2483 6.70404 92.4405 5.94187 91.2696 5.51357C90.7816 6.56772 90.2834 7.66771 90.3037 8.82914C90.3217 9.85248 91.1392 11.1 91.8575 11.9094C91.9138 13.2694 91.9569 14.6406 91.9531 16.0087C91.8111 15.7592 91.6491 15.5367 91.463 15.3625C90.6151 14.5685 89.4649 14.2005 88.3559 13.8557C88.0771 14.5454 87.975 15.2183 88.1077 15.8511C87.3357 15.4964 86.5334 15.1811 85.6902 15.1894C85.1997 15.1944 84.6464 15.4162 84.1335 15.7173C84.3004 15.4872 84.4569 15.2507 84.5984 15.0049C84.788 14.6756 84.9478 14.3627 85.0839 14.0588C86.1053 14.1631 87.537 14.0559 88.309 13.6171C89.2243 13.0967 89.5639 12.2227 89.5272 11.1704C88.5475 11.1235 87.5285 11.0832 86.6263 11.4683C86.2817 11.6153 85.952 11.8938 85.6559 12.2285C85.7145 11.9112 85.7562 11.5894 85.7859 11.2545C85.825 10.8132 85.8279 10.3709 85.7987 9.93091C86.8432 9.3007 88.1462 8.15054 88.5637 7.1677C89.051 6.0201 88.7425 4.9533 87.9513 3.98962C86.9955 4.64985 86.0077 5.34446 85.4354 6.35515C84.9332 7.24198 85.0012 8.72384 85.2066 9.78491C85.0901 11.4136 84.8006 13.0155 83.9936 14.4158C83.0839 15.9943 81.5756 17.2061 80.4602 18.6263C80.4833 17.0939 80.4787 15.73 80.4121 14.5725C81.4258 13.9257 82.6208 12.8405 83.0169 11.9076C83.5043 10.76 83.1957 9.69325 82.4045 8.72957C81.4487 9.3898 80.4609 10.0844 79.8886 11.0951C79.424 11.9157 79.4473 13.2461 79.6162 14.2809C79.4171 15.5654 79.2371 16.8534 79.0769 18.1449C78.8313 17.5315 78.5251 16.9744 78.1758 16.6134C77.4447 15.8578 76.5454 15.6476 75.5645 15.8115C75.9687 14.9561 76.3206 14.0839 76.5653 13.1793C76.8921 11.9728 77.0602 10.9155 77.1096 9.91115C78.0948 9.77484 79.5791 9.24835 80.2257 8.5735C80.9264 7.84235 80.9993 6.94328 80.6761 5.98335C79.76 6.20936 78.8098 6.45235 78.084 7.05509C77.6357 7.42729 77.3174 8.1047 77.1157 8.77481C77.0887 8.06282 77.0067 7.35972 76.8814 6.62916C76.5318 4.59157 75.7402 2.65415 74.5746 0.946676C74.5588 0.923562 74.5228 0.939366 74.5293 0.966629C75.4545 4.75318 76.3571 8.72957 75.3395 12.4879C75.3304 12.5211 75.3204 12.5539 75.3111 12.587C75.1653 11.6453 74.7385 10.3938 74.168 9.80427C73.4872 9.10058 72.6214 8.99765 71.6824 9.27483C71.8675 10.168 72.0676 11.0949 72.6235 11.818C73.1384 12.4875 74.3259 12.9004 75.1686 13.0594C74.0244 16.6047 71.3746 19.6939 70.6245 23.2598C70.1598 22.5539 69.7317 21.8279 69.3583 21.0732C69.171 20.6949 69.0004 20.3115 68.8413 19.9243C69.7922 19.7208 70.9895 19.2458 71.5524 18.6585C72.2531 17.9274 72.326 17.0283 72.0028 16.0684C71.0867 16.2944 70.1365 16.5374 69.4107 17.1401C68.9622 17.5125 68.6438 18.1907 68.4421 18.8612C68.1173 17.9129 67.8648 16.9429 67.6724 15.9567C68.7639 15.7774 70.3082 15.2096 70.9972 14.4909C71.7762 13.6781 71.857 12.6789 71.4979 11.6121C70.4797 11.8634 69.4235 12.1335 68.6167 12.8034C68.0776 13.2512 67.7077 14.096 67.4883 14.8982C67.248 13.3297 67.1402 11.7277 67.1092 10.1162C68.2032 9.94809 69.7912 9.3736 70.4929 8.64146C71.2719 7.82872 71.3526 6.82948 70.9935 5.76268C69.9753 6.01397 68.9192 6.28403 68.1123 6.95394C67.6597 7.32989 67.3261 7.98578 67.1007 8.66142C67.1097 7.1594 67.1696 5.65561 67.2358 4.16979C67.2376 4.1285 67.1811 4.11606 67.1647 4.15399C65.9665 6.95809 65.375 9.9882 65.4517 13.0365C65.4608 13.3962 65.4764 13.7497 65.4981 14.0997C64.6948 14.3172 63.906 14.596 63.2714 15.1229C62.8485 15.4741 62.5302 16.0701 62.3064 16.6978C62.2398 14.8836 61.8874 13.3229 61.3214 11.6676C61.2188 11.3679 61.108 11.0714 60.9893 10.7786C62.2301 10.5728 64.1571 9.80822 64.9598 8.89473C65.8085 7.92888 65.8515 6.78464 65.3888 5.58488C64.2395 5.92191 63.0474 6.28225 62.16 7.0865C61.3777 7.79553 60.9646 9.27818 60.8241 10.3853C60.0181 8.53024 58.8887 6.82771 57.4929 5.35473C57.4698 5.33023 57.4299 5.35592 57.443 5.38693C58.0724 6.87907 58.7028 8.39867 59.2385 9.94059C58.7816 9.12982 58.1575 8.32419 57.4562 7.98103C56.3801 7.45475 55.1351 7.43973 53.9373 7.43519C53.8261 8.71614 54.1853 9.80348 55.2689 10.4955C56.3062 11.1581 58.4068 11.3539 59.6508 11.1966C60.043 12.4727 60.3533 13.7631 60.5294 15.0648C60.0392 14.2473 59.265 13.2978 58.4529 13.0031C57.4671 12.6451 56.3819 12.748 55.3388 12.8555C55.3613 13.981 55.7752 14.8941 56.7829 15.3957C57.7268 15.8657 59.5175 15.852 60.595 15.6146C60.7101 16.711 60.7263 17.8151 60.6096 18.9254C60.5584 19.4108 60.4608 19.9476 60.3306 20.5181C60.1056 19.6423 59.6906 18.6498 59.0748 18.1615C58.2531 17.5099 57.1911 17.2638 56.1675 17.0356C55.8325 18.1103 55.936 19.1076 56.7329 19.9023C57.4485 20.6159 59.0404 21.1532 60.1376 21.2988C59.7638 22.7131 59.2293 24.2869 58.6799 25.8314C58.7016 25.1109 58.6105 24.3252 58.282 23.8171C57.7804 23.0413 56.9637 22.5359 56.1741 22.0565C55.5911 22.8585 55.3957 23.7199 55.8362 24.6083C56.2412 25.4248 57.4653 26.347 58.3452 26.7654C57.8582 28.1177 57.3839 29.4158 57.0253 30.5257C56.1507 29.7483 55.3269 28.9257 54.6001 28.0209C53.1681 26.2381 52.1641 24.2075 51.4118 22.0553C52.0294 21.8623 52.7672 21.5084 53.0916 21.0262C53.4924 20.4302 53.6035 19.6919 53.7046 18.9807C52.9529 18.8096 52.2775 18.9337 51.7775 19.5206C51.4673 19.8847 51.2368 20.5306 51.1105 21.1447C50.8185 20.2141 50.5678 19.2646 50.345 18.3059C50.9823 18.1218 51.7901 17.7553 52.1337 17.2444C52.5345 16.6484 52.6455 15.9101 52.7467 15.1989C51.995 15.0278 51.3195 15.1519 50.8195 15.7388C50.502 16.1114 50.2683 16.7788 50.1441 17.4056C49.8878 16.2122 49.6672 15.0095 49.4572 13.816C49.8084 13.2439 50.1781 12.3806 50.0739 11.7478C49.9574 11.039 49.5322 10.4252 49.1184 9.83825C48.4536 10.2288 48.0468 10.7822 48.085 11.5522C48.1203 12.266 48.716 13.3154 49.2156 13.8838C49.0802 14.7278 49.0002 15.5784 48.9759 16.4297C48.6847 15.8394 48.1964 15.1296 47.6464 14.882C46.9913 14.5873 46.2449 14.6021 45.5268 14.6225C45.4847 15.3923 45.7208 16.0371 46.3836 16.4311C47.0029 16.7993 48.2221 16.8817 48.9704 16.7756C48.9578 17.9406 49.0496 19.1056 49.247 20.2561C48.7839 19.64 48.1308 18.9912 47.485 18.8085C46.628 18.5661 45.7151 18.72 44.8381 18.8754C44.9266 19.8273 45.3334 20.5752 46.2179 20.9381C47.0203 21.2672 48.4656 21.1629 49.3716 20.913C49.4204 21.1481 49.472 21.3828 49.5299 21.6163C49.8082 22.7422 50.1383 23.791 50.5747 24.8226C49.8381 24.2126 48.8205 23.5917 47.9684 23.5733C46.8982 23.5502 45.8828 24.005 44.9095 24.4504C45.2998 25.5311 45.999 26.2782 47.1373 26.4333C48.1859 26.5759 49.8709 25.9989 50.8432 25.4258C51.4699 26.7634 52.2976 28.0908 53.46 29.5377C56.9704 33.9078 62.7355 36.365 65.6125 41.0649C65.5949 41.1202 65.5817 41.1763 65.5635 41.2318C63.7687 46.7337 59.6329 51.402 57.4485 56.6506C57.1476 56.0005 56.8424 55.3523 56.5279 54.709C56.29 54.2223 56.0449 53.7343 55.7953 53.2457C56.1116 52.319 56.4066 51.3875 56.6423 50.4474C57.6101 50.4282 58.9434 50.1617 59.6169 49.6601C60.4124 49.0674 60.6285 48.2108 60.4721 47.2312C59.5505 47.3009 58.5933 47.3815 57.7944 47.846C57.5044 48.0147 57.2409 48.2932 57.0109 48.6186C57.0399 48.4195 57.0676 48.2203 57.0887 48.0202C57.2029 46.9362 57.2322 45.9623 57.1901 45.0496C58.1625 44.9775 59.623 44.5685 60.2941 43.9606C61.0294 43.2947 61.1625 42.4213 60.9132 41.4612C60.0027 41.6188 59.0574 41.7903 58.3065 42.3292C57.7687 42.715 57.3736 43.5138 57.1342 44.2485C56.9969 42.8263 56.6762 41.5325 56.2122 40.1749C56.1689 40.0486 56.1237 39.9232 56.0777 39.7981C57.1379 39.4556 58.6261 38.628 59.2061 37.7864C59.8492 36.8536 59.7686 35.8476 59.2399 34.8454C58.2687 35.2591 57.2628 35.6975 56.5692 36.4932C56.0589 37.0786 55.8297 38.109 55.7628 39.0057C55.0389 37.3066 54.0444 35.7338 52.8229 34.3448C52.9875 33.3659 53.0146 31.9095 52.4928 31.082C51.9298 30.1892 51.0032 29.6013 50.1071 29.0432C49.4307 29.9522 49.1964 30.9336 49.6883 31.9544C50.1484 32.909 51.5764 34.0007 52.5795 34.4778C53.0432 35.5849 53.5003 36.7064 53.9132 37.8406C53.434 37.1329 52.7848 36.4235 52.106 36.171C51.1166 35.803 50.0234 35.8978 48.9726 35.998C48.9864 37.1309 49.3957 38.0533 50.406 38.5662C51.3565 39.0486 53.17 39.047 54.2548 38.8135C54.6033 39.8491 54.9052 40.8946 55.1329 41.9483C54.7129 41.3525 54.1584 40.7683 53.5817 40.5589C52.7131 40.2434 51.7567 40.3341 50.8373 40.4289C50.8571 41.4207 51.2217 42.2255 52.11 42.6674C52.8986 43.06 54.3568 43.0693 55.3153 42.8909C55.5211 44.0967 55.6195 45.3125 55.5664 46.5368C55.4378 45.9818 55.227 45.4486 54.9054 45.1061C54.2728 44.4322 53.3787 44.0811 52.5157 43.7504C52.0855 44.6442 52.0473 45.5269 52.64 46.3224C53.1724 47.0372 54.4931 47.711 55.4311 47.9787C55.278 49.051 55.0138 50.1082 54.6956 51.1566C51.5106 45.276 47.5365 39.3497 43.0214 33.9066C42.6571 29.9593 44.5418 25.8944 44.4051 21.8433C44.328 19.5582 43.9045 17.8835 43.1791 16.2341C43.9183 15.8437 44.8899 15.1308 45.1779 14.3692C45.4928 13.5361 45.4176 12.6133 45.3379 11.7263C44.382 11.7328 43.6018 12.0742 43.1646 12.9243C42.8405 13.5547 42.7679 14.6387 42.8458 15.5186C42.8083 15.4419 42.7711 15.3655 42.7322 15.2886C42.0779 13.9946 41.2323 12.8117 40.2367 11.7664C41.1946 11.2583 42.4463 10.3369 42.8185 9.35266C43.2273 8.27164 43.1297 7.07406 43.0262 5.9231C41.7855 5.93159 40.7734 6.37451 40.206 7.47766C39.7167 8.42929 39.6691 10.1769 39.8568 11.3776C39.4998 11.0291 39.1268 10.6966 38.7354 10.3843C38.7129 10.3663 38.6821 10.3928 38.6969 10.4175C39.4715 11.7162 40.2511 13.0424 40.9295 14.4053C40.0782 13.8599 38.9652 13.3549 38.0823 13.4318C36.931 13.5319 35.894 14.139 34.9015 14.7311C35.4469 15.8453 36.2846 16.5658 37.5248 16.5988C38.6305 16.6282 40.2977 15.8639 41.2892 15.1539C41.8452 16.3528 42.3092 17.581 42.6121 18.8442C41.953 18.4124 41.0698 18.0005 40.3732 18.0611C39.4909 18.138 38.6963 18.603 37.9355 19.0568C38.3536 19.9106 38.9956 20.4628 39.9459 20.4881C40.7612 20.5098 41.9748 19.9683 42.7425 19.4426C42.8772 20.1285 42.9631 20.8247 42.987 21.5326C43.003 22.0039 42.9902 22.4757 42.9582 22.9472C42.4094 22.3437 41.5741 21.6566 40.8281 21.5527C39.951 21.4306 39.0725 21.7064 38.2297 21.9788C38.4464 22.9046 38.9488 23.5859 39.8696 23.823C40.6881 24.0338 42.0587 23.7503 42.9212 23.3912C42.6443 26.3432 41.6452 29.2919 41.5654 32.1865C40.7738 31.2738 39.9668 30.3773 39.1466 29.499C40.0037 29.0241 41.064 28.2162 41.389 27.3565C41.7622 26.3691 41.6731 25.2754 41.5787 24.224C40.4457 24.2318 39.5211 24.6363 39.0029 25.6439C38.5865 26.4537 38.5203 27.8948 38.6519 28.9749C37.3773 27.6307 36.0704 26.3324 34.7361 25.0885C35.5034 24.6049 36.3205 23.907 36.5987 23.1711C36.9719 22.1837 36.8828 21.09 36.7883 20.0386C35.6554 20.0463 34.7308 20.4509 34.2126 21.4585C33.8633 22.1375 33.7608 23.2604 33.8141 24.2422C32.7082 23.242 31.5847 22.2805 30.4456 21.3632C31.204 20.7263 32.1458 19.6639 32.2898 18.7134C32.448 17.6697 32.1318 16.619 31.8192 15.6108C30.7129 15.8558 29.8937 16.4449 29.5979 17.5388C29.3492 18.4586 29.6206 19.973 30.0025 21.0088C29.4379 20.5614 28.8695 20.1254 28.298 19.7004C27.736 18.9444 26.9096 18.114 26.1 17.8967C25.0806 17.6229 24.001 17.8197 22.9642 18.0176C23.0839 19.1443 23.5778 20.0244 24.6316 20.4405C25.5601 20.8071 27.2024 20.6799 28.2763 20.3879C29.1694 21.2591 30.0493 22.1519 30.9138 23.0672C30.1671 22.9279 29.3664 22.8977 28.7836 23.1375C27.8075 23.5393 27.0694 24.3513 26.3661 25.1385C27.1457 25.9608 28.0726 26.3598 29.1625 26.0501C30.0341 25.8023 31.1248 24.8746 31.8244 24.0441C32.4546 24.7306 33.0767 25.4279 33.6901 26.136C32.7841 26.5111 31.6353 27.1965 31.2151 28.0161C30.7335 28.9553 30.6993 30.0521 30.6754 31.1075C31.8022 31.2268 32.7663 30.9287 33.3941 29.9854C33.9115 29.2084 34.1373 27.7311 34.1154 26.6338C35.5208 28.2783 36.8808 29.9763 38.189 31.7211C37.2972 31.7784 36.2771 31.9941 35.6903 32.4921C34.8855 33.1751 34.4337 34.1751 34.007 35.1406C35.0018 35.6827 36.0066 35.7767 36.9482 35.1463C37.6673 34.6647 38.3856 33.5311 38.8056 32.554C44.7473 40.6437 49.5982 49.6646 52.9039 58.7324C52.9365 58.8215 52.9677 58.9114 52.9999 59.0007C51.0744 57.9302 48.9854 57.0398 47.0478 55.9453C47.641 55.2033 48.2473 54.1695 48.2471 53.3176C48.2468 52.2621 47.7762 51.2708 47.3157 50.3209C46.2588 50.7293 45.5373 51.4347 45.4093 52.5606C45.3217 53.3299 45.6329 54.4368 46.0385 55.3436C45.4219 54.9556 44.8267 54.5397 44.2668 54.0782C43.9302 53.8009 43.6131 53.5057 43.3051 53.2029C43.9485 52.4563 44.684 51.2978 44.6836 50.3595C44.6832 49.3039 44.2127 48.3126 43.7522 47.3627C42.6952 47.7711 41.9738 48.4766 41.8458 49.6024C41.7618 50.3409 42.0455 51.3895 42.4272 52.2744C41.5204 51.2281 40.7444 50.0706 40.0533 48.8497C40.8734 48.3191 41.8618 47.4536 42.1281 46.5834C42.4368 45.5741 42.2772 44.4883 42.1152 43.4452C40.985 43.526 40.0885 43.9893 39.6365 45.0284C39.3538 45.6782 39.3072 46.6962 39.3951 47.6198C38.7858 46.4186 38.2412 45.174 37.7277 43.9237C38.5422 43.3917 39.5118 42.5359 39.775 41.6755C40.0838 40.6662 39.9241 39.5804 39.7621 38.5373C38.6319 38.6181 37.7354 39.0814 37.2834 40.1204C37.0537 40.6482 36.9804 41.4193 37.0078 42.1854C36.9922 42.1854 36.9766 42.1953 36.977 42.215C37.0056 43.7884 37.2459 45.3477 37.6902 46.8491C37.3476 46.5399 36.9223 46.3295 36.398 46.2465C35.4378 46.0948 33.9202 46.547 32.9319 47.0496C33.0219 44.9976 33.1294 42.931 32.8013 40.9351C33.7679 40.7452 35.0583 40.2891 35.6368 39.5526C36.2887 38.7224 36.5315 37.6523 36.7563 36.6211C35.6729 36.289 34.6698 36.3978 33.8734 37.2038C33.2963 37.7878 32.8378 38.9465 32.6077 39.9532C32.3137 38.6341 31.9308 37.5292 31.4474 36.5211C32.2924 36.042 33.3072 35.2542 33.6239 34.4161C33.9971 33.4287 33.908 32.3351 33.8135 31.2837C32.6806 31.2914 31.756 31.696 31.2378 32.7035C30.9018 33.3568 30.7945 34.4207 30.8342 35.3749C30.5444 34.8847 30.2271 34.4072 29.881 33.9262C29.4484 33.325 28.9709 32.7606 28.4604 32.2286C29.2131 31.5889 30.1309 30.5427 30.273 29.6055C30.4312 28.5618 30.1149 27.511 29.8024 26.5028C28.6961 26.7478 27.8768 27.3369 27.5811 28.4308C27.3495 29.2876 27.5692 30.66 27.9088 31.6814C27.0842 30.9018 26.177 30.2116 25.2025 29.6215C24.9158 28.6793 24.3327 27.4438 23.5426 26.9432C22.6511 26.378 21.5619 26.2442 20.5131 26.1243C20.2917 27.2356 20.5009 28.2228 21.383 28.934C22.2498 29.6329 24.1462 30.0095 25.2398 29.9701C26.2252 31.1634 27.2053 32.3857 28.085 33.6603C27.3724 33.2492 26.5338 32.9165 25.8455 32.972C24.7934 33.0568 23.8429 33.6052 22.933 34.1402C23.4245 35.1611 24.1855 35.8237 25.3181 35.8613C26.3072 35.894 27.7942 35.234 28.7097 34.6028C29.5157 35.8749 30.2032 37.2029 30.6839 38.6083C30.137 38.0618 29.477 37.5721 28.848 37.4419C27.8144 37.2279 26.7482 37.4873 25.7244 37.7453C25.9096 38.8631 26.4538 39.713 27.5303 40.067C28.4434 40.3673 29.9887 40.1717 31.0442 39.841C31.0966 40.056 31.1452 40.2725 31.1872 40.4912C31.9459 44.4492 30.8629 48.7095 31.5361 52.5928C30.3755 51.7107 29.2947 50.7228 28.2713 49.6652C29.0214 49.0246 29.9298 47.9848 30.0711 47.053C30.2293 46.0093 29.913 44.9585 29.6005 43.9504C28.4942 44.1953 27.6749 44.7844 27.3792 45.8783C27.1545 46.7092 27.3543 48.0259 27.6763 49.0364C26.6828 47.9598 25.7442 46.8189 24.8443 45.6426C25.5725 44.9974 26.4066 44.0094 26.5413 43.1198C26.6996 42.0762 26.3833 41.0254 26.0708 40.0172C24.9644 40.2622 24.1452 40.8513 23.8494 41.9452C23.6687 42.6137 23.7631 43.5965 23.9743 44.4816C23.127 43.3265 22.3095 42.1491 21.5066 40.9758C21.831 40.0411 22.0936 38.6576 21.7344 37.772C21.3377 36.7939 20.5293 36.0517 19.746 35.3442C18.9196 36.1197 18.5158 37.0444 18.8201 38.1359C19.1103 39.1772 20.3663 40.5356 21.2745 41.1668C21.4831 41.9365 21.7299 42.6937 22.0104 43.4375C21.3164 42.9235 20.4537 42.461 19.7195 42.4509C18.664 42.4365 17.6662 42.893 16.71 43.3401C17.1035 44.4028 17.7987 45.1341 18.9226 45.2777C19.892 45.4018 21.4071 44.8988 22.3796 44.364C22.9531 45.7171 23.6469 47.017 24.4536 48.2478C23.6068 47.8582 22.5124 47.5346 21.7119 47.7231C20.6844 47.9649 19.8268 48.6496 19.0076 49.3152C19.6468 50.2508 20.4985 50.7917 21.6238 50.659C22.6347 50.5396 24.0547 49.6168 24.8544 48.8412C25.127 49.2316 25.4103 49.6151 25.7061 49.9898C26.2367 50.6619 26.7744 51.2939 27.3363 51.8958C26.4856 51.7064 25.4939 51.6325 24.8119 51.9276C23.8433 52.3471 23.1201 53.1725 22.431 53.972C23.2254 54.78 24.1592 55.1622 25.2434 54.8329C26.1747 54.55 27.3444 53.4781 28.0139 52.5938C29.7093 54.2701 31.6807 55.7077 34.4027 57.0838C40.3139 60.0725 47.6144 60.1199 53.266 63.2786C52.3411 63.4809 51.6297 63.9841 51.2786 64.9104C50.9835 65.6896 51.0394 66.9604 51.2443 67.9818C50.6605 67.4804 50.0334 67.0296 49.3673 66.6394C48.6209 66.0367 47.5604 65.4081 46.691 65.4106C45.6355 65.4138 44.6453 65.8871 43.6969 66.35C44.108 67.4059 44.8154 68.1254 45.9417 68.2505C46.9607 68.3635 48.5676 67.7767 49.5196 67.1979C50.5803 68.4014 51.6157 69.649 52.4657 70.9876C51.7745 70.5034 50.9335 70.0812 50.2209 70.0834C49.1654 70.0866 48.1752 70.5599 47.2268 71.023C47.6379 72.0787 48.3453 72.7984 49.4716 72.9235C50.4742 73.0347 52.0465 72.4683 53.0037 71.8987C53.5474 72.8885 53.9796 73.929 54.236 75.0399C54.4798 76.096 54.5583 77.1859 54.5804 78.2847C54.2793 77.4666 53.8046 76.5919 53.187 76.178C52.3101 75.5903 51.2247 75.4289 50.1794 75.2823C49.9297 76.3876 50.1138 77.3797 50.9776 78.113C51.7721 78.7877 53.4757 79.2029 54.5881 79.244C54.5851 80.8622 54.5268 82.4842 54.7527 84.0322C54.723 84.014 54.692 83.9984 54.6624 83.9802C47.8977 79.8256 42.9256 73.3421 36.7958 68.2973C35.0805 66.8856 33.2404 65.5657 31.316 64.3596C31.9316 63.5967 32.6029 62.4613 32.5838 61.548C32.5616 60.4889 32.0691 59.5039 31.5875 58.5602C30.5353 58.9916 29.8259 59.7143 29.7206 60.8467C29.6418 61.6936 30.0503 62.9366 30.532 63.876C29.2174 63.0832 27.8657 62.3459 26.4896 61.6693C26.9922 60.8352 27.4949 59.6386 27.3566 58.7473C27.1948 57.7042 26.5781 56.7964 25.9777 55.9283C24.9957 56.4936 24.3905 57.3012 24.4364 58.4334C24.4696 59.2532 25.003 60.3781 25.5812 61.2329C24.3797 60.6705 23.1616 60.1564 21.9343 59.6949C21.6044 58.9316 20.925 57.8452 20.1504 57.5013C19.343 57.1427 18.4248 57.1654 17.5417 57.1947C17.4947 58.142 17.7888 58.9338 18.6065 59.4144C19.342 59.8469 20.7579 59.9496 21.6836 59.8364C25.4305 61.8331 28.685 64.541 31.7651 67.5152C30.4178 67.3417 29.029 67.4391 27.6285 67.5772C27.6858 66.7496 27.5925 65.5556 27.1 64.9142C26.5619 64.2134 25.7444 63.7946 24.9548 63.3985C24.4609 64.2081 24.3412 65.0443 24.8297 65.8573C25.2402 66.5402 26.3096 67.254 27.1557 67.6248C25.3852 67.8072 23.6011 68.014 21.862 67.7856C21.8591 67.7852 21.8563 67.7846 21.8533 67.7842C22.2427 66.6775 22.557 65.0619 22.1447 64.0178C21.6838 62.8511 20.7312 61.9603 19.8077 61.111C18.8173 62.0235 18.3274 63.1184 18.677 64.4189C18.9595 65.4693 20.0627 66.798 21.0455 67.6426C18.0241 67.0086 15.3682 65.1536 12.8503 63.3037C13.0262 61.9394 12.9869 59.9304 12.2243 58.8144C11.3985 57.6062 10.0848 56.8391 8.81488 56.1117C7.9241 57.4057 7.64969 58.7775 8.38341 60.1665C9.11714 61.5555 11.393 63.1059 12.8031 63.6299C12.8116 63.5793 12.8191 63.5251 12.827 63.472C13.4586 64.3914 14.2042 65.2243 15.047 65.9488C13.6186 65.8468 11.8167 65.9784 10.7594 66.7072C9.44942 67.6104 8.62107 69.0423 7.83579 70.4264C9.24653 71.3892 10.7395 71.6816 12.2466 70.8778C13.604 70.1537 15.0956 68.0705 15.7906 66.5414C16.0286 66.717 16.2708 66.8873 16.5215 67.0462C18.1243 68.0618 19.6591 68.7132 21.9582 69.0217C21.2391 69.3599 20.5603 69.812 20.1998 70.36C19.5427 71.3582 19.3701 72.5886 19.214 73.7735C20.4677 74.0458 21.5892 73.8281 22.4114 72.8434C23.0944 72.0254 23.5308 70.3702 23.6357 69.129C25.7634 69.1326 27.9303 68.7104 30.0329 68.6703C29.2164 69.2248 28.3855 69.9858 28.0998 70.7776C27.6943 71.9017 27.814 73.1384 27.939 74.3271C29.2216 74.2988 30.2613 73.8251 30.8307 72.6753C31.3151 71.6972 31.3425 69.9263 31.1388 68.6896C31.8803 68.7327 32.6112 68.842 33.3266 69.0563C37.6054 73.3676 41.6446 78.0587 46.3315 81.8887C44.7058 82.2834 43.1676 82.9581 41.6658 83.7608C41.682 82.641 41.5022 81.2593 40.8953 80.4689C40.1314 79.4738 38.9703 78.8794 37.849 78.3167C37.1477 79.4665 36.9778 80.6538 37.6714 81.8079C38.2261 82.7307 39.629 83.694 40.7989 84.2388C38.705 85.4295 36.6645 86.8171 34.5382 87.9863C34.5783 86.3861 34.3353 84.3564 33.455 83.21C32.3789 81.8085 30.7439 80.9713 29.1647 80.1789C28.1771 81.798 27.9377 83.4702 28.9148 85.0958C29.7131 86.424 31.759 87.8126 33.4273 88.5699C32.5045 89.0315 31.562 89.4413 30.5881 89.7641C28.684 90.3953 26.7211 90.6805 24.7321 90.7412C24.9716 89.139 24.9804 87.0161 24.2145 85.743C23.3036 84.2292 21.7735 83.2127 20.2936 82.2473C19.1296 83.7448 18.7029 85.3791 19.4904 87.1046C20.0653 88.3642 21.6242 89.7826 23.0715 90.742C20.1941 90.6622 17.2817 90.1849 14.4306 89.6619C13.9335 88.1238 12.8582 85.9629 11.4631 85.1573C9.97571 84.2983 8.19574 84.1541 6.48273 84.0296C6.19746 85.8511 6.60403 87.4422 8.0859 88.539C9.50731 89.5912 12.5021 90.078 14.2959 89.9733C16.226 91.0454 18.3092 91.8135 20.4714 92.2406C18.4028 93.263 15.8668 95.0123 15.0043 96.9697C13.9962 99.2574 14.0681 101.855 14.158 104.354C16.8386 104.479 19.0767 103.64 20.4302 101.323C21.6759 99.19 21.9413 95.0394 21.5768 92.4285C21.7619 92.4548 21.9476 92.4787 22.1335 92.5002C24.5905 92.7823 26.8219 92.7547 29.4438 92.1422C28.4661 93.4356 27.4398 95.3004 27.5044 96.7876C27.5813 98.5527 28.4394 100.177 29.2781 101.732C31.0162 100.973 32.1721 99.741 32.3048 97.849C32.4253 96.1339 31.3309 93.4791 30.2967 91.9273C30.751 91.8032 31.2175 91.6628 31.7007 91.5028C34.0251 90.7323 36.173 89.4735 38.2925 88.1686C37.4707 89.2583 36.6111 90.8245 36.6655 92.0741C36.7303 93.5621 37.4537 94.9309 38.1606 96.2419C39.6256 95.602 40.6 94.5637 40.712 92.9688C40.8183 91.4544 39.8011 89.0697 38.8957 87.7962C41.9281 85.9189 44.9308 84.033 48.3394 83.4409C48.482 83.5448 48.6229 83.6511 48.7669 83.7533C53.1779 86.8855 58.2292 89.0855 63.5087 90.2613C69.4277 91.5796 74.3025 95.8421 76.3872 101.536C76.4012 101.575 76.4152 101.613 76.429 101.652C79.3655 109.765 82.0918 120.84 81.5661 133.287C81.2879 139.873 80.8671 145.006 80.0524 149.242C77.809 157.113 73.9543 162.075 68.5422 167.083C68.466 167.153 68.5322 167.277 68.6331 167.253C86.0245 163.216 98.3123 166.475 100.701 167.204C100.803 167.235 100.872 167.106 100.794 167.034C100.326 166.597 99.8793 166.161 99.4514 165.725C100.579 165.934 101.731 166.173 102.907 166.446C103.008 166.47 103.074 166.346 102.998 166.275C97.0274 160.751 92.9516 155.284 90.8443 145.902C90.4292 142.543 90.1672 138.669 89.974 134.095C89.4483 121.647 92.1746 110.572 95.1111 102.459C95.1249 102.42 95.1389 102.382 95.1529 102.344C97.2376 96.6495 102.112 92.387 108.031 91.0687C113.311 89.8929 118.362 87.6927 122.773 84.5607C122.917 84.4585 123.058 84.3522 123.201 84.2483C126.527 84.826 129.466 86.6354 132.423 88.4667C131.569 89.7854 130.689 91.9583 130.788 93.3724C130.9 94.9673 131.874 96.0056 133.339 96.6455C134.046 95.3345 134.77 93.9657 134.835 92.4777C134.879 91.4646 134.322 90.2428 133.672 89.2358C135.654 90.4462 137.67 91.5909 139.84 92.31C140.234 92.4408 140.616 92.5567 140.991 92.6632C140.026 94.2411 139.083 96.6546 139.195 98.2526C139.328 100.145 140.484 101.377 142.222 102.136C143.061 100.58 143.919 98.9563 143.996 97.1912C144.053 95.8778 143.259 94.2687 142.399 93.0196C144.892 93.5654 147.045 93.5787 149.407 93.3074C149.562 93.2896 149.717 93.2689 149.872 93.2476C149.589 95.8656 149.888 99.7039 151.07 101.727C152.423 104.044 154.662 104.883 157.342 104.758C157.432 102.259 157.504 99.661 156.496 97.3733C155.711 95.5916 153.539 93.9821 151.596 92.9364C153.821 92.4368 155.957 91.5764 157.918 90.3923C157.919 90.3913 157.919 90.3895 157.921 90.3884C159.716 90.3516 162.169 89.8644 163.414 88.9426C164.895 87.8452 165.301 86.2543 165.016 84.4326ZM88.6307 80.5716C89.149 81.2121 90.2164 81.8024 91.2082 82.1748C90.7131 83.4662 90.1734 84.7466 89.6658 86.0283C89.3658 86.1245 89.0661 86.2146 88.7672 86.2986C88.6131 84.2469 88.4732 82.1351 88.3521 80.1605C88.4307 80.3002 88.5222 80.4375 88.6307 80.5716ZM91.2493 46.9334C92.4563 46.956 94.2962 46.6217 95.2219 45.9573C93.419 48.2389 91.0888 50.1082 88.8438 52.0185C89.1498 51.5689 89.4377 51.1088 89.6967 50.6319C90.4193 49.3012 90.912 48.103 91.2493 46.9334ZM83.1398 16.9177C84.0373 17.4325 85.4949 17.9339 86.4202 17.8191C87.3139 17.7083 87.9169 17.196 88.3041 16.4334C88.4084 16.6529 88.5443 16.8663 88.7192 17.0719C89.3511 17.815 90.7303 18.4704 91.8676 18.7994C91.7601 20.5319 91.5379 22.2426 91.128 23.9003C91.0185 23.2841 90.8231 22.7011 90.5039 22.2923C89.7887 21.3771 88.7093 20.8358 87.6666 20.3239C87.0263 21.3939 86.8783 22.4944 87.5297 23.5577C88.0678 24.436 89.4446 25.3472 90.5521 25.8318C90.3077 26.5248 90.0242 27.2061 89.6943 27.8727C89.2701 28.7299 88.7753 29.5497 88.2363 30.3455C88.3308 29.5964 88.3138 28.8267 88.0617 28.2569C87.5917 27.1947 86.6772 26.4062 85.7912 25.6549C84.9091 26.536 84.4966 27.5673 84.8686 28.7574C85.1774 29.7447 86.2979 30.9706 87.2563 31.71C85.1549 34.4908 82.6546 37.0456 80.905 39.9471C80.6781 38.0869 80.5293 36.235 80.4343 34.4171C81.2857 34.2946 82.3006 33.9957 82.8267 33.4459C83.4982 32.7446 83.8164 31.7869 84.1149 30.8629C83.153 30.4617 82.2249 30.4709 81.4236 31.1373C81.0246 31.4692 80.652 32.0548 80.36 32.681C80.3282 31.7647 80.3082 30.8605 80.298 29.9703C81.3588 29.8483 82.7214 29.4877 83.4016 28.7771C84.2048 27.9381 84.5857 26.7921 84.9429 25.6867C83.7921 25.2067 82.6817 25.2179 81.7229 26.0151C81.1674 26.477 80.6555 27.3498 80.2881 28.2321C80.2893 26.9525 80.3061 25.7093 80.3294 24.515C81.4068 24.3337 83.0256 23.8003 83.7103 22.9095C84.4184 21.9885 84.6732 20.8083 84.9089 19.6708C83.7131 19.3178 82.6104 19.4489 81.7433 20.3448C81.087 21.0231 80.5793 22.3903 80.3503 23.5326C80.377 22.3417 80.4072 21.2026 80.4311 20.1313C81.1307 18.9535 82.1834 17.9692 83.1398 16.9177ZM75.1599 16.6314C75.3684 17.5429 75.6436 18.4432 76.2086 19.1779C76.7386 19.8674 77.8291 20.3433 78.7948 20.6074C78.6644 21.8478 78.5516 23.0907 78.4554 24.3355C78.117 23.1958 77.4405 21.8036 76.6833 21.174C75.7245 20.3769 74.6141 20.3654 73.4633 20.8456C73.8205 21.951 74.2014 23.097 75.0047 23.936C75.7481 24.7124 77.3068 25.0718 78.3955 25.1575C78.3135 26.309 78.246 27.462 78.1924 28.6161C77.8923 27.7111 77.3654 26.6814 76.7809 26.1955C75.9796 25.5291 75.0515 25.5196 74.0896 25.921C74.3881 26.8448 74.7064 27.8028 75.3778 28.5041C75.9859 29.1392 77.2461 29.4401 78.1527 29.5197C78.1063 30.6774 78.0729 31.8361 78.0541 32.9953C76.2862 30.1179 73.794 27.5746 71.712 24.7995C72.0565 21.8844 73.7855 19.3203 75.1599 16.6314ZM58.4369 31.7169C59.1637 29.3311 60.3549 26.3685 61.2117 23.6715C62.1612 23.892 63.6705 23.9374 64.49 23.5595C64.9058 23.3676 65.2112 23.0944 65.4256 22.7592C65.685 24.1486 65.9321 25.5496 66.1378 26.9547C65.761 26.5064 65.3197 26.1172 64.8655 25.9523C63.9649 25.6253 62.9731 25.7191 62.0199 25.8175C62.0405 26.846 62.4186 27.6803 63.3394 28.1386C64.0717 28.5031 65.3604 28.5487 66.3357 28.4215C66.4744 29.5507 66.5795 30.6808 66.6352 31.807C66.2731 31.2699 65.7743 30.7211 65.2545 30.5322C64.5198 30.2655 63.7108 30.3419 62.9334 30.4222C62.9502 31.261 63.2586 31.9416 64.0097 32.3155C64.661 32.6397 65.8525 32.6549 66.6631 32.5151C66.6901 33.4003 66.6848 34.2826 66.6392 35.1601C66.3697 34.7737 66.0102 34.3914 65.6364 34.2557C65.0816 34.0544 64.471 34.1121 63.8841 34.1727C63.8967 34.8061 64.1296 35.32 64.6966 35.6021C65.1624 35.834 65.9941 35.8565 66.6008 35.7684C66.5277 36.7621 66.4021 37.7491 66.2101 38.726C64.2086 35.9488 61.1995 33.9503 58.4369 31.7169ZM67.5979 42.5206C68.9986 38.2264 69.1456 35.0037 68.709 31.3528C68.3385 28.2562 67.3737 25.2626 65.8877 22.528C66.0102 21.8639 66.0418 20.7826 65.6575 20.1886C65.2668 19.5845 64.6308 19.1909 64.0158 18.8173C63.5618 19.442 63.4097 20.1129 63.7529 20.8048C63.8234 20.9468 63.9269 21.093 64.051 21.238C63.7219 21.2554 63.3973 21.3052 63.0824 21.4091C62.5014 21.6007 61.9312 22.1655 61.4944 22.7469C61.839 21.5703 62.0978 20.4669 62.1983 19.5131C62.2434 19.0862 62.2742 18.6775 62.2941 18.2814C63.3872 18.1083 64.9562 17.5368 65.6524 16.8104C65.7051 16.7555 65.7539 16.6996 65.8003 16.6429C66.132 18.4687 66.7352 20.3067 67.783 22.4239C69.2556 25.3997 71.5668 27.932 73.6889 30.5332C73.1 30.192 72.4319 29.9269 71.8679 29.9555C70.9255 30.0035 70.0618 30.4682 69.2347 30.9222C69.6468 31.8473 70.3092 32.4595 71.32 32.523C72.2199 32.5795 73.5996 32.0067 74.4298 31.4573C75.1279 32.3454 75.7899 33.2484 76.3771 34.186C75.9563 33.8503 75.4948 33.5823 75.0564 33.5072C74.1265 33.3478 73.182 33.6121 72.2754 33.8738C72.4752 34.8668 72.9872 35.6092 73.9596 35.8925C74.8057 36.139 76.2317 35.8994 77.1643 35.5574C77.5057 36.2155 77.8042 36.8935 78.0474 37.598C78.0986 40.9756 78.2653 44.3524 78.5395 47.7172C77.4524 47.6836 76.331 47.6763 75.3403 48.1172C74.6269 48.4347 73.9766 49.2445 73.5103 50.0382C73.1302 48.7857 72.6346 47.5696 72.0303 46.4052C72.4479 45.2955 72.7504 43.6613 72.4866 42.6686C72.1747 41.494 71.2985 40.8582 70.113 40.5903C69.773 41.6704 69.4289 42.796 69.5936 43.9162C69.7422 44.9257 70.7284 46.0567 71.5342 46.7456C71.902 48.7506 72.2308 50.7812 72.4011 52.8052C71.9019 51.7738 71.0664 50.5801 70.2639 50.0973C69.2226 49.4707 68.1511 49.6234 67.1131 50.2557C67.6202 51.268 68.1562 52.316 69.0539 53.0061C69.8755 53.6375 71.4048 53.758 72.4653 53.6853C72.5852 55.6776 72.5332 57.6589 72.1942 59.5979C71.7444 58.4918 70.7803 57.0044 69.8605 56.4511C68.8192 55.8244 67.7477 55.9771 66.7097 56.6095C67.2168 57.6218 67.7528 58.6698 68.6505 59.3599C69.485 60.0011 71.0502 60.1157 72.1123 60.0357C71.9704 60.7517 71.7887 61.4615 71.5595 62.1636C71.1008 63.57 70.4627 64.9124 69.7455 66.224C69.5067 65.1947 69.0638 64.0647 68.4992 63.4683C67.6635 62.5858 66.5902 62.4461 65.4208 62.7776C65.6385 63.8886 65.8744 65.042 66.5546 65.947C67.07 66.6327 68.1471 67.1112 69.0938 67.3769C67.9057 69.4123 66.5888 71.3936 65.5153 73.4432C65.4258 73.2984 65.3333 73.155 65.2458 73.0094C62.7072 68.79 60.8162 64.2318 58.8292 59.7194C60.7137 53.7217 65.603 48.6364 67.5979 42.5206ZM33.353 53.8408C32.8054 51.8812 32.8193 49.8035 32.9028 47.7008C33.6203 48.3365 34.649 49.0119 35.5165 49.0495C36.4537 49.09 37.3561 48.7573 38.2256 48.3888C38.3631 48.7306 38.5102 49.0686 38.6701 49.4017C38.9834 50.055 39.3127 50.6702 39.6762 51.2631C39.272 51.0096 38.801 50.8763 38.2528 50.896C37.1204 50.9373 35.3999 51.9296 34.6176 52.6813C35.4238 53.2509 36.8834 53.9725 37.927 53.8149C38.8982 53.6681 39.7531 53.1272 40.5688 52.5719C40.9728 53.1041 41.4226 53.6254 41.9358 54.1472C41.809 54.1249 41.6776 54.111 41.5368 54.1162C40.7357 54.1454 39.5184 54.8475 38.9648 55.3793C39.5353 55.7824 40.5678 56.2928 41.3062 56.1814C41.9937 56.0775 42.599 55.6944 43.1763 55.3013C43.2966 55.4044 43.4177 55.5078 43.5439 55.6117C45.3174 57.073 47.432 58.0967 49.5271 59.1234C44.7498 57.5811 39.433 57.0125 34.9244 54.7331C34.3835 54.4595 33.8635 54.1567 33.353 53.8408ZM52.9875 69.805C52.6694 69.3965 52.3249 69.0117 51.961 68.6468C52.7364 68.0745 53.6256 67.1947 53.8417 66.3431C54.0725 65.4341 53.9308 64.4829 53.7477 63.557C54.0984 63.7679 54.4427 63.9904 54.7787 64.229C55.5682 66.6355 56.3489 69.0462 57.2177 71.4139C56.389 71.4898 55.7221 71.8454 55.3518 72.6166C55.2169 72.8976 55.1357 73.2682 55.0952 73.668C54.5871 72.1342 53.9014 70.9789 52.9875 69.805ZM56.1432 84.8337C56.0462 84.3884 55.9809 83.9348 55.9338 83.4765C56.8301 83.307 57.9442 82.9243 58.4782 82.29C59.123 81.5238 59.3877 80.5169 59.6341 79.5463C58.6176 79.1966 57.6628 79.2676 56.8819 80.0062C56.4661 80.3993 56.1016 81.0894 55.8374 81.8032C55.7967 79.7859 55.9487 77.7104 55.6156 75.7317C56.2948 75.3204 57.1032 74.655 57.3426 73.9644C57.5392 73.3978 57.5508 72.7943 57.5068 72.1911C58.687 75.3184 60.043 78.36 61.8113 81.2002C63.2703 83.5436 65.3728 86.1466 67.6388 88.4699C63.6245 87.9833 59.6992 86.7555 56.1432 84.8337ZM79.6549 85.8946C74.3535 84.0903 70.0753 80.0787 66.8257 75.4354C68.5248 71.9013 71.0883 68.6179 72.664 64.9752C73.752 65.4239 75.3144 65.7727 76.2917 65.5586C77.4788 65.2984 78.1525 64.4509 78.472 63.2784C77.4079 62.8914 76.2985 62.4983 75.1722 62.6138C74.5319 62.6794 73.8284 63.0765 73.2144 63.555C73.2468 63.4611 73.2826 63.3685 73.3134 63.2741C73.7674 61.8823 74.0684 60.6211 74.2474 59.4217C75.4035 59.4857 76.899 59.3235 77.7246 58.8374C78.7718 58.2206 79.1482 57.2055 79.0868 55.9918C77.9552 55.9552 76.7783 55.927 75.7439 56.3873C75.2666 56.5998 74.8182 57.0335 74.4335 57.5345C74.4973 56.2403 74.4298 54.9773 74.2709 53.6488C74.1702 52.8056 74.0163 51.9717 73.8152 51.1505C74.975 51.2188 76.4889 51.0578 77.3212 50.5677C78.0723 50.1254 78.4767 49.4774 78.6237 48.6988C78.9929 52.9012 79.5291 57.0833 80.2245 61.2226C81.2942 67.591 82.1566 76.4613 80.8612 83.2898C80.57 82.7876 80.2976 82.2759 80.0526 81.7504C79.0249 79.5447 78.4893 77.1952 78.242 74.7836C79.0378 74.6098 79.9781 74.2437 80.444 73.7816C81.067 73.1637 81.1498 72.3863 80.8908 71.5479C80.0923 71.7237 79.264 71.9134 78.6219 72.4197C78.4259 72.5744 78.2558 72.7946 78.111 73.0473C78.0294 71.4021 78.0569 69.7375 78.1328 68.0782C78.8088 67.9431 79.6399 67.6307 80.0427 67.2311C80.5585 66.7194 80.6271 66.076 80.4127 65.3818C79.7517 65.5274 79.0658 65.6842 78.5344 66.1034C78.4186 66.1947 78.3145 66.3146 78.2203 66.4511C78.2539 65.8998 78.2902 65.3498 78.3275 64.8021C78.3303 64.7609 78.274 64.747 78.2568 64.7848C77.382 66.706 76.7959 68.7422 76.5193 70.8252C76.0126 69.853 75.2423 68.7981 74.5001 68.3514C73.4588 67.7248 72.3872 67.8775 71.3493 68.5099C71.8564 69.5221 72.3924 70.5702 73.2901 71.2602C74.0366 71.8339 75.3676 71.9857 76.4004 71.9542C76.3569 72.5092 76.335 73.0663 76.336 73.6248C76.3382 74.8712 76.4124 76.0517 76.5997 77.2398C76.0928 76.2789 75.3332 75.2465 74.6011 74.806C73.5597 74.1793 72.4882 74.332 71.4502 74.9644C71.9574 75.9767 72.4933 77.0247 73.391 77.7148C74.2166 78.3493 75.757 78.4678 76.818 78.3928C77.0662 79.5145 77.4269 80.6643 77.9364 81.9012C77.3107 81.5256 76.563 81.2101 76.0031 81.1947C75.1297 81.1704 74.5129 81.6449 74.0868 82.4075C74.7621 82.8619 75.4679 83.3285 76.2738 83.4431C76.9034 83.5326 77.7242 83.2064 78.3481 82.8476C78.3813 82.9202 78.4119 82.9911 78.4459 83.0644C78.9003 84.0397 79.4443 84.9702 80.0413 85.8732C79.9232 85.9264 79.7865 85.9392 79.6549 85.8946ZM117.656 66.7469C117.897 67.6969 118.976 68.6825 119.799 69.2367C119.352 69.664 118.932 70.1217 118.55 70.6124C117.629 71.7956 116.94 72.9596 116.43 74.5122C116.414 73.9498 116.329 73.4027 116.146 73.0207C115.802 72.3059 115.205 71.9473 114.46 71.8377C115.274 69.5935 116.012 67.3129 116.759 65.0364C117.053 64.8274 117.355 64.6324 117.66 64.4448C117.529 65.2156 117.465 65.9958 117.656 66.7469ZM128.196 55.62C128.811 56.0415 129.454 56.4736 130.191 56.585C130.929 56.6966 131.962 56.186 132.532 55.7829C131.979 55.2511 130.762 54.549 129.96 54.5198C129.741 54.5119 129.54 54.5413 129.353 54.5986C129.933 54.0486 130.439 53.5028 130.888 52.9476C131.716 53.5126 132.583 54.0693 133.57 54.2185C134.614 54.3762 136.073 53.6545 136.88 53.0849C136.097 52.3332 134.377 51.3407 133.244 51.2996C132.695 51.2797 132.223 51.4138 131.818 51.6687C132.286 50.9517 132.695 50.2052 133.081 49.4015C133.173 49.2103 133.259 49.0169 133.344 48.8225C134.191 49.1785 135.07 49.4922 135.981 49.4527C136.858 49.4147 137.899 48.7253 138.617 48.0836C138.714 50.3308 138.769 52.5565 138.184 54.6478C137.674 54.9637 137.154 55.2665 136.613 55.5401C130.751 58.5039 123.522 58.5734 117.89 61.6543C117.974 61.4085 118.06 61.1636 118.145 60.9184C118.127 61.0644 118.109 61.2104 118.095 61.3568C121.285 59.2876 125.22 58.0681 128.196 55.62ZM112.291 38.1902C112.856 39.0097 114.283 39.8173 115.337 40.1753C114.824 41.6745 114.487 43.0965 114.378 44.6989C114.141 43.9517 113.74 43.1269 113.191 42.7328C112.44 42.1941 111.495 42.0224 110.584 41.8648C110.335 42.8249 110.468 43.6983 111.204 44.3642C111.883 44.9798 113.373 45.3919 114.345 45.4561C114.328 46.2513 114.363 47.0956 114.461 48.0202C114.504 48.4374 114.57 48.8519 114.647 49.2648C114.382 48.8371 114.063 48.4592 113.703 48.2498C112.904 47.7853 111.947 47.7047 111.025 47.635C110.869 48.6146 111.085 49.4712 111.881 50.0639C112.591 50.5928 114.034 50.8605 115.009 50.8524C115.268 51.8148 115.586 52.7684 115.916 53.7183C115.606 54.3189 115.302 54.9186 115.009 55.5164C114.695 56.1599 114.39 56.8079 114.089 57.458C111.905 52.2094 107.769 47.5411 105.974 42.0392C105.956 41.9839 105.942 41.9278 105.925 41.8723C107.418 39.4331 109.689 37.598 112.019 35.786C111.724 36.6084 111.763 37.4239 112.291 38.1902ZM104.91 36.1742C105.515 36.2599 106.338 36.236 106.8 36.0059C107.367 35.7236 107.6 35.2097 107.613 34.5765C107.026 34.5161 106.415 34.4582 105.861 34.6595C105.497 34.7917 105.146 35.1582 104.879 35.5343C104.847 34.669 104.852 33.7996 104.888 32.9276C105.697 33.0577 106.85 33.0366 107.487 32.7193C108.238 32.3454 108.547 31.6648 108.564 30.826C107.786 30.7458 106.977 30.6691 106.243 30.936C105.755 31.1132 105.286 31.6075 104.93 32.1116C104.998 31.0213 105.109 29.9285 105.251 28.8364C106.214 28.9494 107.447 28.8958 108.157 28.5424C109.078 28.0841 109.456 27.2496 109.477 26.2213C108.524 26.1231 107.532 26.0291 106.631 26.3561C106.225 26.5036 105.83 26.831 105.481 27.2192C105.685 25.8912 105.923 24.5674 106.17 23.2548C106.257 23.211 106.347 23.1612 106.44 23.1069C106.655 23.468 106.972 23.7608 107.411 23.9633C108.123 24.2918 109.356 24.3003 110.291 24.1523C111.232 27.0222 112.491 30.1312 113.136 32.4957C110.363 34.7405 107.337 36.7443 105.327 39.5334C105.109 38.4247 104.976 37.3036 104.91 36.1742ZM103.899 89.2771C106.165 86.9538 108.267 84.3509 109.726 82.0074C111.465 79.2158 112.804 76.2293 113.97 73.1583C113.973 73.5708 114.02 73.9782 114.155 74.368C114.407 75.0946 115.289 75.7939 115.987 76.1979C115.592 78.1857 115.728 80.2806 115.704 82.3245C115.437 81.5695 115.054 80.8245 114.616 80.4096C113.835 79.671 112.88 79.6 111.863 79.9499C112.11 80.9205 112.374 81.9274 113.019 82.6936C113.568 83.3463 114.732 83.7325 115.64 83.8941C115.594 84.4858 115.519 85.0696 115.394 85.6409C111.838 87.5627 107.913 88.7905 103.899 89.2771Z"
                        fill="white" />
        </g>
        <defs>
                <clipPath id="clip0_3_6">
                        <rect width="168" height="168" fill="white"
                                transform="translate(0.412445 0.27243)" />
                </clipPath>
        </defs>
</svg>