<svg width="22" height="23" viewBox="0 0 22 23" fill="none" xmlns="http://www.w3.org/2000/svg">
<g clip-path="url(#clip0_4_116)">
<path d="M16.5021 12.9802C14.8898 15.1633 12.4972 17.3165 9.80245 16.9656C9.07322 17.9801 8.25933 19.3971 7.3553 21.0417L5.26502 21.6945C7.03393 18.2584 9.39551 14.4588 11.9292 11.5713C10.8321 12.283 9.02953 13.8133 7.46091 15.4271C6.04614 12.4842 7.53829 9.75807 9.69867 7.6774C9.63767 8.65745 10.0747 9.55227 10.4015 10.0119C10.3451 9.19234 10.4416 7.72727 11.0424 6.45801C12.2469 5.44624 13.3111 4.71733 14.5283 4.08089C14.3308 4.79802 14.4983 5.65748 14.7305 6.19419C14.8361 5.45077 15.2794 4.04734 15.7929 3.4653C17.3105 2.4907 19.5574 1.71011 21.9563 1.75C21.6914 3.22142 20.9157 5.61034 19.8678 7.09264C19.0221 7.63389 17.9041 7.95029 17.0119 8.10351C17.7503 8.31021 18.5769 8.36914 19.2961 8.31656C18.7726 9.41084 18.2428 10.4117 17.4398 11.6402C16.3328 12.2558 14.918 12.5268 13.9512 12.5785C14.6276 12.9312 15.8603 13.1379 16.5021 12.9802ZM3.74829 20.7879H0.106689V21.6945H3.74829V20.7879Z"/>
</g>
<defs>
<clipPath id="clip0_4_116">
<rect width="21.8496" height="21.7586" transform="translate(0.106689 0.842529)"/>
</clipPath>
</defs>
</svg>
