<svg width="39" height="38" viewBox="0 0 39 38" fill="none" xmlns="http://www.w3.org/2000/svg">
<g id="iconmonstr-edit-11 1" clip-path="url(#clip0_4_120)">
<path id="Vector" d="M19.4488 3.85346C27.9827 3.85346 34.9256 10.7674 34.9256 19.2658C34.9256 27.7642 27.9827 34.6781 19.4488 34.6781C10.9148 34.6781 3.97195 27.7642 3.97195 19.2658C3.97195 10.7674 10.9148 3.85346 19.4488 3.85346ZM19.4488 0.770996C9.19228 0.770996 0.876587 9.05204 0.876587 19.2658C0.876587 29.4796 9.19228 37.7606 19.4488 37.7606C29.7052 37.7606 38.0209 29.4796 38.0209 19.2658C38.0209 9.05204 29.7052 0.770996 19.4488 0.770996ZM13.2673 20.7515L18.0744 25.5371L11.7104 26.972L13.2673 20.7515ZM28.7348 14.9503L19.6964 24.076L14.7407 19.141L23.7807 10.0184L28.7348 14.9503Z"/>
</g>
<defs>
<clipPath id="clip0_4_120">
<rect width="37.1443" height="36.9896" fill="white" transform="translate(0.876587 0.770996)"/>
</clipPath>
</defs>
</svg>
