<svg width="25" height="25" viewBox="0 0 25 25" fill="none" xmlns="http://www.w3.org/2000/svg">
<g id="iconmonstr-user-8 1" clip-path="url(#clip0_4_125)">
<path id="Vector" d="M20.2393 15.2576C17.7528 15.2576 15.7329 17.2671 15.7329 19.7453C15.7329 22.2235 17.7528 24.233 20.2393 24.233C22.7259 24.233 24.7458 22.2235 24.7458 19.7453C24.7458 17.2671 22.7259 15.2576 20.2393 15.2576ZM22.7429 20.244H20.7401V22.2385H19.7386V20.244H17.7357V19.2467H19.7386V17.2522H20.7401V19.2467H22.7429V20.244ZM15.5526 24.233H0.71625L0.711243 22.9954C0.711243 20.4823 0.910529 19.0313 3.89382 18.3452C7.26367 17.5703 10.5915 16.8762 8.99115 13.9392C4.25134 5.23407 7.63921 0.298584 12.7285 0.298584C19.4893 0.298584 20.2453 7.87284 16.3738 13.9402C15.0799 15.9657 13.73 17.5603 13.73 19.7453C13.73 21.4876 14.427 23.0672 15.5526 24.233Z" />
</g>
<defs>
<clipPath id="clip0_4_125">
<rect width="24.0346" height="23.9345" fill="white" transform="translate(0.711243 0.298584)"/>
</clipPath>
</defs>
</svg>
